# xmcd
#
# Track frame offsets: 
#        150
#        3403
#        40517
#        50605
#        64871
#        76566
#        93333
#        110044
#        123049
#        140603
#        150545
#        168900
#        181780
#        209908
#
# Disc length: 2943 seconds
#
# Revision: 9
# Processed by: cddbd v1.5.2PL0 Copyright (c) Steve Scherf et al.
# Submitted via: ExactAudioCopyFreeDBPlugin 1.0
#
DISCID=af0b7d0e
DTITLE=The Carpenters - 1996 - Christmas Collection Cd 2
DYEAR=1996
DGENRE=Christmas
TTITLE0=It Came Upon A Midnight Clear
TTITLE1=Overture
TTITLE2=An Old-Fashioned Christmas
TTITLE3=O Holy Night
TTITLE4=(There's No Place Like) Home For The Holidays
TTITLE5=Medley
TTITLE6=Little Altar Boy
TTITLE7=Do You Hear What I Hear?
TTITLE8=My Favorite Things
TTITLE9=He Came Here For Me
TTITLE10=Santa Claus Is Coming To Town
TTITLE11=What Are You Doing New Year's Eve?
TTITLE12=Selections From "The Nutcracker"
TTITLE13=I Heard The Bells On Christmas Day
EXTD=
EXTT0=
EXTT1=
EXTT2=
EXTT3=
EXTT4=
EXTT5=
EXTT6=
EXTT7=
EXTT8=
EXTT9=
EXTT10=
EXTT11=
EXTT12=
EXTT13=
PLAYORDER=
